<svg id="Layer_1" data-name="Layer 1" xmlns="http://www.w3.org/2000/svg" viewBox="0 0 96.68 222.68"><defs><style>.cls-1{fill:#bcbec0;}.cls-2{fill:#231f20;}</style></defs><title>Artboard 1</title><path class="cls-1" d="M1.78,2.65a519.55,519.55,0,0,1,39,79.74C46,95.83,50.42,109.31,54.2,122.66c1.17,4.12,2.36,8.37,3.49,12.64,1.38,1.67,2.69,3.38,3.85,5,11.86,16.34,20.26,36.58,24.64,55.35.34.1.68.18,1,.29,2.2.37,4.42.79,6.64,1.13,1.2.19,2.31,2.46,2.07,3.58-1.61,7.21-3.46,14.21-5.21,21.3-.31,1.28-2.09.93-3-.88-4.56-8.6-9-17.22-13.51-25.85-.8-1.55-.68-3.47.72-2.93a73.85,73.85,0,0,0,7.72,2.36c-3.68-15.13-9.06-30.39-18.48-45.46-1.38-2.22-3-4.66-4.67-7a163.27,163.27,0,0,1,3.79,20c.71,6.33-1.14,13.36-7.46,9.5C49,167.51,44.52,153.11,42.45,146c-2.2-7.56-4.38-18.32,1-20,3-.9,6.55,1.35,10,4.69C42.64,88.26,24.19,44.37.33,3.49-.66,1.8.78,1,1.78,2.65Zm90.1,198c-1.62-.33-3.22-.66-4.82-1,.84,4.11,1.47,8.12,1.91,12C89.92,208,90.87,204.3,91.88,200.67ZM80.65,198c-.7-.13-1.4-.28-2.11-.46q3.87,7.25,7.68,14.5c-.79-4.38-1.66-8.78-2.65-13.2C82.61,198.57,81.63,198.3,80.65,198Zm-28.9-64.75c-9.27-7.88-8.88,3.11-6.76,11.15a94.37,94.37,0,0,0,3.18,9.69q1,2.58,2.13,5.13c1.49,3.56,4.26,8.63,6.91,8.87,1.81.16,3.42-.75,2.74-5.39a48.54,48.54,0,0,0-.8-6c-.43-2.62-1-5.31-1.54-8-.85-4.12-1.8-8.27-2.8-12.44A32.24,32.24,0,0,0,51.75,133.24Z"/><path class="cls-2" d="M2.52.92a519.49,519.49,0,0,1,39,79.74c5.17,13.44,9.63,26.92,13.41,40.27,1.17,4.12,2.36,8.37,3.5,12.64,1.38,1.67,2.68,3.38,3.84,5,11.86,16.34,20.27,36.58,24.64,55.35.34.1.69.18,1,.29,2.2.37,4.42.79,6.65,1.13,1.19.19,2.31,2.46,2.06,3.58-1.61,7.21-3.46,14.21-5.2,21.3-.32,1.28-2.09.93-3.06-.88-4.56-8.6-9-17.22-13.51-25.85-.8-1.55-.67-3.47.73-2.93a70.69,70.69,0,0,0,7.71,2.36c-3.67-15.12-9-30.39-18.47-45.46-1.39-2.22-3-4.66-4.67-7a163.53,163.53,0,0,1,3.78,20c.72,6.33-1.14,13.36-7.46,9.5-6.74-4.12-11.25-18.52-13.32-25.66-2.2-7.56-4.37-18.32,1-20,3-.91,6.56,1.34,10,4.68C43.37,86.53,24.92,42.64,1.06,1.76.08.07,1.52-.76,2.52.92Zm90.09,198c-1.61-.33-3.21-.66-4.82-1,.84,4.11,1.48,8.12,1.91,12C90.65,206.24,91.61,202.57,92.61,198.94Zm-11.23-2.68c-.7-.13-1.4-.28-2.1-.46Q83.14,203,87,210.31c-.79-4.39-1.65-8.79-2.64-13.21C83.34,196.84,82.36,196.57,81.38,196.26Zm-28.9-64.75c-9.26-7.88-8.88,3.11-6.76,11.15a94.37,94.37,0,0,0,3.18,9.69q1,2.58,2.14,5.13c1.48,3.57,4.25,8.63,6.91,8.87,1.8.16,3.42-.75,2.74-5.39a50.52,50.52,0,0,0-.8-6c-.43-2.62-1-5.31-1.55-8-.84-4.12-1.8-8.27-2.79-12.44A34.86,34.86,0,0,0,52.48,131.51Z"/></svg>